<svg id="svg4" height="24" version="1.1" viewBox="0 0 24 24" width="24" xmlns="http://www.w3.org/2000/svg"><path id="rect819" d="m0 0v24h15.521484c-.43888-.261711-.736273-.73706-.736328-1.285156v-.455078c.000077-.397798.158149-.779279.439453-1.060547l.46875-.46875v-1.873047c0-1.696132 1.090655-2.997929 2.507813-3.746094.164053-.520638.448522-.901088.912109-1.177734.274501-.271627.643178-.426894 1.029297-.433594.107211.0016.21394.014703.31836.039062.048178.01132.095758.025006.142578.041016.215936.073306.412317.194876.574218.355469.460988.276858.74283.657153.90625 1.175781.785121.41436 1.461303 1.003422 1.916016 1.730469v-16.841797h-24z" fill="#000000" fill-opacity="1" opacity="1"/></svg>