<svg id="svg6" height="24" version="1.1" viewBox="0 0 24 24" width="24" xmlns="http://www.w3.org/2000/svg"><path id="rect815" d="m0 24v-24h17.480469a1.50015 1.50015 0 0 0 .253906 1.779297l.705078.705078h-3.439453a1.50015 1.50015 0 0 0 -1.5 1.5v.515625.515625a1.50015 1.50015 0 0 0 1.5 1.5h3.439453l-.705078.705078a1.50015 1.50015 0 0 0 0 2.121094l.71875.71875a1.50015 1.50015 0 0 0 1.039063.439453 1.50015 1.50015 0 0 0 1.082031-.439453l3.425781-3.425781v17.365234z" fill="#000000" fill-opacity="1" opacity="1"/></svg>