<svg id="svg6" height="24" version="1.1" viewBox="0 0 24 24" width="24" xmlns="http://www.w3.org/2000/svg"><path id="rect815" d="m0 0v17.365234l3.4257812-3.425781a1.50015 1.50015 0 0 1 1.0390626-.439453 1.50015 1.50015 0 0 1 1.0820312.439453l.71875.71875a1.50015 1.50015 0 0 1 0 2.121094l-.7050781.705078h3.4394531a1.50015 1.50015 0 0 1 1.5 1.5v.515625.515625a1.50015 1.50015 0 0 1 -1.5 1.5h-3.4394531l.7050781.705078a1.50015 1.50015 0 0 1 .2539062 1.779297h17.4804688v-24h-24z" fill="#000000" fill-opacity="1" opacity="1"/></svg>