<svg id="svg6" height="24" version="1.1" viewBox="0 0 24 24" width="24" xmlns="http://www.w3.org/2000/svg"><path id="path4" d="m.80070225 8.193317c-1.067603-1.075578-1.067603-2.816315 0-3.891892l3.68744505-3.714988c.7761199-.781916 2.033363-.781916 2.809483 0 .776119.781917.776119 2.048551 0 2.830467l-2.985075 3.007371c-.484636.488255-1.271291.488255-1.755927 0-.484635-.488255-.484635-1.280786 0-1.769042l2.63389-2.653562.702371.707616-2.665497 2.685406c-.193152.194594.158033.548403.351186.353808l3.016681-3.039214c.386304-.389189.386304-1.026044 0-1.415233-.386304-.389189-1.018438-.389189-1.404741 0l-3.687445 3.714988c-.67778805.68285-.67778805 1.793808 0 2.476658.677787.68285 1.780509.68285 2.458296 0l3.336261-3.361179.7023699.707616-3.33626 3.36118c-1.067603 1.075577-2.795435 1.075577-3.86303795 0z" stroke-width="1"/></svg>