<svg id="svg8" height="24" version="1.1" viewBox="0 0 24 24" width="24" xmlns="http://www.w3.org/2000/svg"><path id="path823" d="m4.5 15c-2.479359 0-4.5 2.020641-4.5 4.5s2.020641 4.5 4.5 4.5 4.5-2.020641 4.5-4.5-2.020641-4.5-4.5-4.5zm0 1c.775208 0 1.48371.256227 2.0625.679688l-4.882812 4.882812c-.423461-.57879-.679688-1.287292-.679688-2.0625 0-1.938919 1.561081-3.5 3.5-3.5zm2.773438 1.382812c.449627.588683.726562 1.315985.726562 2.117188 0 1.938919-1.561081 3.5-3.5 3.5-.801203 0-1.528505-.276935-2.117188-.726562z" line-height="normal" style="font-style:normal;font-variant:normal;font-weight:normal;font-stretch:normal;font-size:medium;font-family:sans-serif;text-decoration:none;letter-spacing:normal;word-spacing:normal;writing-mode:lr-tb;direction:ltr;dominant-baseline:auto;baseline-shift:baseline;text-anchor:start;clip-rule:nonzero;display:inline;visibility:visible;opacity:1;color-interpolation:sRGB;color-interpolation-filters:linearRGB;fill:#000000;fill-opacity:1;fill-rule:nonzero;color-rendering:auto;image-rendering:auto;shape-rendering:auto;text-rendering:auto"/></svg>