<svg id="svg6" height="24" version="1.1" viewBox="0 0 24 24" width="24" xmlns="http://www.w3.org/2000/svg"><path id="path4" d="m19.5 0c-2.045454 0-3.792273 1.244-4.5 3 .707727 1.756 2.454546 3 4.5 3 2.045455 0 3.792273-1.244 4.5-3-.707727-1.756-2.454545-3-4.5-3zm0 4.999999c-1.129091 0-2.045454-.895999-2.045454-1.999999 0-1.104.916363-2 2.045454-2 1.129091 0 2.045455.896 2.045455 2 0 1.104-.916364 1.999999-2.045455 1.999999zm0-3.199999c-.679091 0-1.227273.536-1.227273 1.2 0 .664.548182 1.2 1.227273 1.2.679091 0 1.227273-.536 1.227273-1.2 0-.664-.548182-1.2-1.227273-1.2z" stroke-width="1"/></svg>