<svg id="svg8" height="24" version="1.1" viewBox="0 0 24 24" width="24" xmlns="http://www.w3.org/2000/svg"><path id="rect823" d="m0 0v24h24v-20.8125c-.274601.3493506-.324841.4125041-.621094.7910156-.629078.80375-1.01669 1.3015128-1.242187 1.5898438v2.8691406c0 1.145684-.940768 2.0625-2.06836 2.0625h-1.130859c-1.118604 0-2.068359-.934998-2.068359-2.0625v-2.8613281c-.228464-.29168-.633126-.8113023-1.273438-1.6289063-.400075-.510851-.802017-1.0239735-1.107422-1.4140625-.305404-.390089-.448249-.5700199-.537109-.6855469l.054687.0664063c-.357454-.413933-.505859-.9390645-.505859-1.3515625 0-.19254284.040386-.37956722.097656-.5625h-13.597656z" display="inline" fill="#000000" fill-opacity="1" opacity="1"/></svg>