<svg id="svg6" height="24" version="1.1" viewBox="0 0 24 24" width="24" xmlns="http://www.w3.org/2000/svg"><path id="path4" d="m19.500003.00004709c-.310004-.000061-.613657.03175-.90625.0918-.585703.119953-1.130547.354156-1.609375.677734-.478828.32357801-.891266.73601601-1.214844 1.21484401-.000282.000417.000282.0015 0 .002-.161381.239006-.302334.493093-.416015.761719-.228526.53854-.353638 1.131283-.353516 1.751903-.000122.620009.125416 1.211835.353516 1.75.000239.000567-.00024.0014 0 .002.113925.268499.254378.522718.416015.761719.000319.000472-.000319.0015 0 .002.323578.478828.736016.891266 1.214844 1.214844.000417.000282.0015-.000282.002 0 .239006.161381.493093.302334.761719.416015.53859.228526 1.131333.353638 1.751953.353516.930553.000183 1.79696-.283145 2.515625-.769531.478828-.323578.891266-.736016 1.214844-1.214844.000319-.000472-.000319-.0015 0-.002.161637-.239001.30209-.49322.416015-.761719.00024-.000567-.000239-.0014 0-.002.2281-.538165.353638-1.129992.353516-1.75.000122-.62062-.12499-1.213363-.353516-1.751953-.113681-.268626-.254634-.522713-.416015-.761719-.000282-.000417.000282-.0015 0-.002-.323578-.478828-.736016-.891266-1.214844-1.21484401-.000472-.000319-.0015.000319-.002 0-.239001-.161637-.49322-.30209-.761719-.416015-.000567-.00024-.0014.000239-.002 0-.538165-.2281-1.129992-.353638-1.75-.353516zm1.349609 1.26953101c1.264923.526453 2.150679 1.770858 2.150391 3.230469.000177.89719-.344973 1.703994-.896484 2.322266-.143389-.306619-.439242-.521485-.802735-.521485h-.451172v-1.351562c0-.2475-.201718-.449219-.449218-.449219h-2.701172v-.900391h.90039c.2475 0 .451172-.201718.451172-.449218v-.900391h.898438c.495 0 .90039-.405391.90039-.900391zm-4.773437 2.507813 2.074219 2.072265v.451172c0 .495.40539.898438.90039.898438v.755859c-1.722644-.221203-3.051133-1.670446-3.050781-3.455078-.000049-.248186.0275-.48931.07617-.722656z" stroke-width="1"/></svg>