<svg id="svg6" height="24" version="1.1" viewBox="0 0 24 24" width="24" xmlns="http://www.w3.org/2000/svg"><path id="path4" d="m4.4955 0c-2.484 0-4.4955 2.016-4.4955 4.5 0 2.484 2.0115 4.5 4.4955 4.5 2.4885 0 4.5045-2.016 4.5045-4.5 0-2.484-2.016-4.5-4.5045-4.5zm.0045 8c-1.989 0-3.5-1.511-3.5-3.5 0-1.989 1.850084-3.5 3.5-3.5 1.649916 0 3.5 1.511 3.5 3.5 0 1.989-1.511 3.5-3.5 3.5zm1.575-3.95c.3735 0 .675-.3015.675-.675 0-.3735-.3015-.675-.675-.675-.3735 0-.675.3015-.675.675 0 .3735.3015.675.675.675zm-3.15 0c.3735 0 .675-.3015.675-.675 0-.3735-.3015-.675-.675-.675-.3735 0-.675.3015-.675.675 0 .3735.3015.675.675.675zm1.575 2.925c1.0485 0 1.9395-.657 2.2995-1.575h-4.599c.36.918 1.251 1.575 2.2995 1.575z" stroke-width="1"/></svg>