<svg id="svg6" height="24" version="1.1" viewBox="0 0 24 24" width="24" xmlns="http://www.w3.org/2000/svg"><path id="path4" d="m19.5 15c-2.484 0-4.5 2.016-4.5 4.5 0 2.484 2.016 4.5 4.5 4.5 2.484 0 4.5-2.016 4.5-4.5 0-2.484-2.016-4.5-4.5-4.5zm.5 8h-1v-1h1zm.8815-3.8375-.405.414c-.324.3285-.4765.7485-.4765 1.4235h-1l.05-.375c.06542-.490658.2025-.945.5265-1.2735l.558-.567c.1665-.162.2655-.387.2655-.6345 0-.495-.405-.9-.9-.9-.495 0-.9.405-.9.9h-.9c0-.9945.8055-1.8 1.8-1.8.9945 0 1.8.8055 1.8 1.8 0 .396-.162.756-.4185 1.0125z" stroke-width="1"/></svg>