<svg id="svg6" height="24" version="1.1" viewBox="0 0 24 24" width="24" xmlns="http://www.w3.org/2000/svg"><path id="path4" d="m4.15625 15c0 0 .32375 1.118144.32375 2.025317 0 .869198-.590625 1.57384-1.491875 1.57384-.905625 0-1.588125-.704642-1.588125-1.57384l.01313-.151899c-.883755 1.012658-1.41313 2.324895-1.41313 3.751055 0 1.864979 1.56625 3.375527 3.5 3.375527 1.93375 0 3.5-1.510548 3.5-3.375527 0-2.274262-1.133125-4.303797-2.84375-5.624473zm-.783125 7.734178c-.77875 0-1.40875-.590718-1.40875-1.324895 0-.683544.459375-1.164557 1.229375-1.316456.774375-.151898 1.575-.510548 2.02125-1.088607.170625.544304.258125 1.118143.258125 1.704641 0 1.118144-.940625 2.025317-2.1 2.025317z" stroke-width="1"/></svg>