<svg id="svg6" height="24" version="1.1" viewBox="0 0 24 24" width="24" xmlns="http://www.w3.org/2000/svg"><path id="rect824" d="m0 0v24h17.5v-2.695312c.0004-.017591.000977-.035175.001953-.052735.0005-.01238.001133-.024749.001953-.037109.001-.0163.002307-.032578.003906-.048828.003071-.038575.007672-.077015.013672-.115235.00861-.049354.019693-.098244.033204-.146484.01323-.048278.028884-.095868.046874-.142578.067646-.177508.16839-.340554.296876-.480469l.722656-.779297-.720703-.777344c-.050612-.055683-.096972-.115094-.138672-.177734-.02813-.040993-.054205-.083363-.078125-.126953-.02377-.044459-.045283-.090089-.064453-.136719-.01753-.041593-.033165-.083953-.046875-.126953-.00402-.01232-.008019-.024689-.011719-.037109-.0079-.02649-.015085-.053188-.021485-.080079-.006019-.027839-.011224-.055844-.015624-.083984-.0037-.02141-.006966-.042903-.009766-.064453-.0032-.02402-.005813-.048116-.007813-.072266-.002-.0273-.003355-.054661-.003906-.082031-.0008-.01236-.00144-.024729-.001953-.037109v-2.699219c.000083-.828393.671607-1.499917 1.5-1.5h5v-13.5h-24z" fill="#000000" fill-opacity="1" opacity="1"/></svg>