<svg id="svg6" height="24" version="1.1" viewBox="0 0 24 24" width="24" xmlns="http://www.w3.org/2000/svg"><path id="rect824" d="m24 24v-24h-17.5v2.695312c-.0004.01759-.000977.03517-.00195.05273-.0005.01238-.00113.02475-.00195.03711-.001.0163-.00231.03258-.00391.04883-.00307.03857-.00767.07701-.013672.115235-.008612.049356-.019695.098246-.033206.146486-.01323.048278-.028884.095868-.046874.142578-.067646.177508-.16839.340554-.296876.480469l-.722656.779297.720703.777344c.050612.05568.096972.115094.138672.177734.02813.04099.054205.08336.078125.126953.02377.04446.045283.09009.064453.136719.01753.04159.033165.08395.046875.126953.00402.01232.00802.02469.011719.03711.0079.02649.015085.05319.021485.08008.00602.02784.011224.05584.015624.08398.0037.02141.00697.0429.00977.06445.0032.02402.00581.04812.00781.07227.002.0273.00335.05466.00391.08203.0008.01236.00144.02473.00195.03711v2.69922c-.000085.828393-.671609 1.499917-1.500002 1.5h-5v13.5z" fill="#000000" fill-opacity="1" opacity="1"/></svg>