<svg id="svg6" height="24" version="1.1" viewBox="0 0 24 24" width="24" xmlns="http://www.w3.org/2000/svg"><path id="rect824" d="m0 24v-24h17.5v2.695312c.0004.01759.000977.03517.002.05273.0005.01238.0011.02475.002.03711.001.0163.0023.03258.0039.04883.0031.03857.0077.07701.01367.115235.0086.049356.0197.098246.03321.146486.01323.048278.02888.095868.04687.142578.06765.177508.16839.340554.296876.480469l.722656.779297-.720703.777344c-.05061.05568-.09697.115094-.138672.177734-.02813.04099-.0542.08336-.07813.126953-.02377.04446-.04528.09009-.06445.136719-.01753.04159-.03317.08395-.04687.126953-.004.01232-.008.02469-.01172.03711-.0079.02649-.01508.05319-.02148.08008-.006.02784-.01122.05584-.01562.08398-.0037.02141-.007.0429-.0098.06445-.0032.02402-.0058.04812-.0078.07227-.002.0273-.0034.05466-.0039.08203-.0008.01236-.0014.02473-.0019.03711v2.69922c.000085.828393.671609 1.499917 1.500002 1.5h5v13.5z" fill="#000000" fill-opacity="1" opacity="1"/></svg>