<svg id="svg6" height="24" version="1.1" viewBox="0 0 24 24" width="24" xmlns="http://www.w3.org/2000/svg"><path id="path4" d="m20.178595 20.751245c1.002295.487517 2.233033.324586 3.052284-.494666 1.038974-1.038974 1.023336-2.743335-.03488-3.801549-1.058214-1.058215-2.762575-1.073851-3.801549-.03488-.819251.819251-.982184 2.049987-.494667 3.052283l-1.365419 1.365419-1.278809-1.278808-1.255557 1.255558 1.278808 1.278808-.627776.627782 1.27881 1.278808zm.494666-3.052283c.345279-.345279.915511-.340047 1.267183.01162.351673.351673.356904.921905.01162 1.267185-.345278.345278-.91551.340046-1.267184-.01162-.351671-.351672-.356902-.921905-.01162-1.267183z" stroke-width="1"/></svg>