<svg id="svg6" height="24" version="1.1" viewBox="0 0 24 24" width="24" xmlns="http://www.w3.org/2000/svg"><path id="path4" d="m1.4801157 22.519883c-.63753095-.63753-.63753095-1.673984 0-2.311516l1.491301-1.4913-.708368-.708368-1.49130095 1.491301c-1.028997 1.028998-1.028997 2.699254 0 3.728252 1.02899795 1.028997 2.69925395 1.028997 3.72825195 0l1.491301-1.491302-.708368-.708367-1.491301 1.4913c-.637531.637532-1.673985.637532-2.311516 0zm1.901408-1.155758 2.982602-2.982601-.74565-.74565-2.982602 2.982601zm1.118476-5.592378-1.491301 1.491302.708368.708368 1.491301-1.491301c.637531-.637531 1.6739851-.637531 2.311516 0 .637531.63753.637531 1.673985 0 2.311516l-1.491301 1.491301.708368.708367 1.4913011-1.4913c1.028997-1.028998 1.028997-2.699255 0-3.728253-1.0289981-1.028997-2.6992551-1.028997-3.7282521 0z" stroke-width="1"/></svg>