<svg id="svg6" height="24" version="1.1" viewBox="0 0 24 24" width="24" xmlns="http://www.w3.org/2000/svg"><path id="path4" d="m16.480116 7.5198837c-.637531-.63753-.637531-1.673984 0-2.311516l1.491301-1.4913-.708368-.708368-1.491301 1.491301c-1.028997 1.028998-1.028997 2.699254 0 3.728252 1.028998 1.0289971 2.699254 1.0289971 3.728252 0l1.491301-1.491302-.708368-.708367-1.491301 1.4913c-.637531.637532-1.673985.637532-2.311516 0zm1.901408-1.155758 2.982602-2.9826009-.74565-.7456501-2.982602 2.982601zm1.118476-5.59237795-1.491301 1.49130205.708368.708368 1.491301-1.491301c.637531-.63753105 1.673985-.63753105 2.311516 0 .637531.63753.637531 1.673985 0 2.311516l-1.491301 1.4913009.708368.708367 1.491301-1.4913c1.028997-1.028998 1.028997-2.699255 0-3.72825295-1.028998-1.028997-2.699255-1.028997-3.728252 0z" stroke-width="1"/></svg>