<svg id="svg6" height="24" version="1.1" viewBox="0 0 24 24" width="24" xmlns="http://www.w3.org/2000/svg"><path id="path4" d="m6.125 3h-.4375v-.857142c0-1.182858-.98-2.142858-2.1875-2.142858-1.2075 0-2.1875.96-2.1875 2.142858v.857142h-.4375c-.48125 0-.875.385715-.875.857143v4.285715c0 .471428.39375.857142.875.857142h5.25c.48125 0 .875-.385714.875-.857142v-4.285715c0-.471428-.39375-.857143-.875-.857143zm-2.625 3.857143c-.48125 0-.875-.385714-.875-.857143 0-.471428.39375-.857142.875-.857142.48125 0 .875.385714.875.857142 0 .471429-.39375.857143-.875.857143zm1.35625-3.857143h-2.7125v-.857142c0-.732858.608125-1.328572 1.35625-1.328572.748125 0 1.35625.595714 1.35625 1.328572z" display="inline" stroke-width="1"/></svg>