<svg id="svg6" height="24" version="1.1" viewBox="0 0 24 24" width="24" xmlns="http://www.w3.org/2000/svg"><path id="path4" d="m23.038461 0h-3.076923c-.530769 0-.961538.458182-.961538 1.022727v6.954546c0 .564545.430769 1.022727.961538 1.022727h3.076923c.53077 0 .961539-.458182.961539-1.022727v-6.954546c0-.564545-.430769-1.022727-.961539-1.022727zm-1.538461 8.590909c-.319231 0-.576923-.274091-.576923-.613636 0-.339546.257692-.613637.576923-.613637.319231 0 .576923.274091.576923.613637 0 .339545-.257692.613636-.576923.613636zm1.730769-1.636364h-3.461538v-5.727272h3.461538z" stroke-width="1"/></svg>