<svg id="svg6" enable-background="new 0 0 24 24" height="24" version="1.1" viewBox="0 0 24 24" width="24" xmlns="http://www.w3.org/2000/svg"><path id="path4" d="m22.714286 3.15v-2.25h.428571c.235714 0 .428572-.2025.428572-.45l0 0c0-.2475-.192858-.45-.428572-.45h-4.285714c-.235714 0-.428572.2025-.428572.45l0 0c0 .2475.192858.45.428572.45h.428571v2.25c0 .747-.574285 1.35-1.285714 1.35l0 0v.9h2.558571v3.15l.428572.45.428571-.45v-3.15h2.584286v-.9l0 0c-.711429 0-1.285714-.603-1.285714-1.35z" fill-rule="evenodd" stroke-width="1"/></svg>