<svg id="svg4" height="24" version="1.1" viewBox="0 0 24 24" width="24" xmlns="http://www.w3.org/2000/svg"><path id="rect819" d="m0 0v24h19.005859c.000084-.070443-.002503-.140883.007813-.212891l.255859-1.787109h-.021484c-.210431 0-.464921-.01563-.787109-.162109-.322152-.146492-.702209-.504223-.855469-.910157-.306521-.811866.002787-1.240083.142578-1.490234.01761-.03152.027992-.046946.039062-.066406.00477-.00839.010825-.020997.015625-.029297.0011-.00193.009997-.015482.009766-.015625.647582-1.144315 1.60282-2.817453 2.880859-5.066406.266479-.469593.764754-.759756 1.304688-.759766h.5c.912909.00037 1.613838.809208 1.484375 1.712891l-.25586 1.787109h.021485c.076711 0 .165561.015703.251953.029297v-17.029297h-24z" fill="#000000" fill-opacity="1" opacity="1"/></svg>