<svg id="svg4" height="24" version="1.1" viewBox="0 0 24 24" width="24" xmlns="http://www.w3.org/2000/svg"><path id="rect819" d="m0 0v24h24v-17.1894531c-.631573 1.1078034-1.671875 2.9296875-1.671875 2.9296875-.266479.4695916-.764754.7597556-1.304687.7597656h-.5c-.912909-.000371-1.613839-.8092076-1.484376-1.7128906l.25586-1.7871094h-.021484c-.210431 0-.464922-.0156304-.78711-.1621094-.322152-.146492-.702209-.5042222-.855469-.9101562-.306521-.811866.002788-1.2400834.142579-1.4902344.017609-.03152.027992-.0469463.039062-.0664062.00477-.00839.010825-.0209969.015625-.0292969.0011-.00193.009997-.015482.009766-.015625.552913-.9770298 1.448085-2.5488747 2.458984-4.3261719h-20.296875z" fill="#000000" fill-opacity="1" opacity="1"/></svg>