<svg id="svg4" height="24" version="1.1" viewBox="0 0 24 24" width="24" xmlns="http://www.w3.org/2000/svg"><path id="rect819" d="m5.015625 0c-.0000839.07044259.0025035.14088259-.0078125.21289062l-.2558594 1.78710938h.0214844c.459235 0 1.1376231.2377351 1.4882813.7832031.3506549.545465.3439356 1.1304882.0878906 1.6425781l-.0175782.0390626c-.01737.0372149-.0362706.073705-.0566406.109375-1.969302 3.4437788-2.9472656 5.1660156-2.9472656 5.1660156-.266479.4695916-.7647545.7597556-1.3046875.7597656h-.5c-.91290896-.000371-1.613838-.8092076-1.484375-1.7128906l.25585938-1.7871094h-.02148438c-.08182961 0-.17688603-.0080312-.2734375-.0195312v17.0195312h24v-24h-18.984375z" fill="#000000" fill-opacity="1" opacity="1"/></svg>