<svg id="svg6" height="24" version="1.1" viewBox="0 0 24 24" width="24" xmlns="http://www.w3.org/2000/svg"><path id="rect824" d="m0 0v24h18.605469l-.576172-.576172c-.197126-.197825-.335118-.44675-.398438-.71875-.386541-.087229-.722868-.323852-.935547-.658203-.463748-.731298-.740234-1.611608-.740234-2.546875 0-2.087366 1.389374-3.825716 3.271484-4.466797v-.033203c-.000002-.820076.658525-1.48817 1.478516-1.5.40523-.005686.795521.152825 1.082031.439453l1.636719 1.636719c.197838.197588.336521.446535.400391.71875.060903.013744.117658.037634.175781.058594v-16.353516h-24z" fill="#000000" fill-opacity="1" opacity="1"/></svg>