<svg id="svg6" height="24" version="1.1" viewBox="0 0 24 24" width="24" xmlns="http://www.w3.org/2000/svg"><path id="path4" d="m3.272727 2.045454v1.227273l1.636364-1.636363-1.636364-1.636364v1.227273c-1.808182 0-3.272727 1.464545-3.272727 3.272727 0 .642273.188182 1.239545.507273 1.742727l.597272-.597273c-.18409-.339545-.286363-.732272-.286363-1.145454 0-1.354091 1.100454-2.454546 2.454545-2.454546zm2.765455.711819-.597273.597272c.18.343637.286364.732273.286364 1.145455 0 1.354091-1.100455 2.454545-2.454546 2.454545v-1.227272l-1.636363 1.636363 1.636363 1.636364v-1.227273c1.808182 0 3.272728-1.464545 3.272728-3.272727 0-.642273-.188182-1.239546-.507273-1.742727z" stroke-width="1"/></svg>