<svg id="svg6" height="24" version="1.1" viewBox="0 0 24 24" width="24" xmlns="http://www.w3.org/2000/svg"><path id="path4" d="m21.432247 20.660377h-.406518l-.144082-.138936c.504288-.586621.80789-1.348199.80789-2.176673 0-1.847341-1.497427-3.344768-3.344769-3.344768-1.847341 0-3.344768 1.497427-3.344768 3.344768 0 1.847342 1.497427 3.344769 3.344768 3.344769.828474 0 1.590052-.303602 2.176673-.80789l.138936.144082v.406518l2.572899 2.567753.766724-.766724zm-3.087479 0c-1.281303 0-2.315609-1.034305-2.315609-2.315609 0-1.281303 1.034306-2.315608 2.315609-2.315608 1.281304 0 2.315609 1.034305 2.315609 2.315608 0 1.281304-1.034305 2.315609-2.315609 2.315609z" stroke-width="1"/></svg>