<svg id="svg8" enable-background="new 0 0 24 24" height="24" version="1.1" viewBox="0 0 24 24" width="24" xmlns="http://www.w3.org/2000/svg"><path id="rect825" d="m0 0v24h15.742188c-.359651-.139671-.685196-.391594-.884766-.755859l-.001953-.001953-.888672-1.53711-.007813-.015625c-.418744-.761362-.266584-1.634661.449219-2.191406l.027344-.021485c-.671305-.529102-.834309-1.523828-.455078-2.1875v-.001953l.880859-1.529297c.402421-.737781 1.357524-1.066901 2.105469-.794921l.023437.009765.027344.009766.001953-.019531.003907-.017579c.1265-.758987.878363-1.445312 1.699218-1.445312h1.800782c.820837 0 1.569959.646233 1.703124 1.445312l.003907.017579.001953.019531.05664-.021484.052735-.017579c.521007-.165772 1.185838-.045717 1.658203.345703v-15.289062h-24z" fill="#000000" fill-opacity="1" opacity="1"/></svg>