<svg id="svg8" enable-background="new 0 0 24 24" height="24" version="1.1" viewBox="0 0 24 24" width="24" xmlns="http://www.w3.org/2000/svg"><path id="rect825" d="m24 24v-24h-15.742188c.359651.139671.685196.391594.884766.755859l.00195.002.888672 1.53711.0078.01563c.41876.76131.2666 1.634609-.449203 2.191354l-.027344.02148c.671305.529102.834309 1.523828.455078 2.1875v.002l-.880859 1.529255c-.402421.737781-1.357524 1.066901-2.105469.794921l-.023437-.0098-.027344-.0098-.00195.01953-.00391.01758c-.1265.759056-.878363 1.445381-1.699218 1.445381h-1.800782c-.820837 0-1.569959-.646233-1.703124-1.445312l-.00391-.01758-.00195-.01953-.05664.02148-.052735.01758c-.521007.165775-1.185838.04572-1.658203-.3457v15.289062z" fill="#000000" fill-opacity="1" opacity="1"/></svg>