<svg id="svg8" enable-background="new 0 0 24 24" height="24" version="1.1" viewBox="0 0 24 24" width="24" xmlns="http://www.w3.org/2000/svg"><path id="path4" d="m22.969684 19.940625c.01875-.140625.028125-.285938.028125-.440625 0-.15-.0094-.3-.03281-.440625l.951562-.740625c.08438-.06562.107813-.192187.05625-.285937l-.9-1.55625c-.05625-.103126-.173437-.135938-.276562-.103126l-1.120313.45c-.234377-.178124-.482814-.328125-.759377-.440624l-.16875-1.190626c-.01875-.112499-.1125-.192187-.225-.192187h-1.8c-.1125 0-.201562.07969-.220312.192187l-.16875 1.190626c-.276563.112499-.529688.267187-.759375.440624l-1.120313-.45c-.103125-.0375-.220312 0-.276562.103126l-.895313 1.55625c-.05625.09844-.0375.220312.05625.285937l.951563.740625c-.023438.140625-.042188.295312-.042188.440625 0 .145312.0094.3.03281.440625l-.951562.740625c-.08438.06563-.107812.192187-.05625.285937l.9 1.556251c.05625.103124.173438.135937.276563.103124l1.120312-.45c.234375.178125.482813.328125.759375.440626l.16875 1.190624c.02344.1125.1125.192188.225.192188h1.8c.1125 0 .20625-.07969.220313-.192188l.16875-1.190624c.276562-.112501.529687-.262501.759375-.440626l1.120312.45c.103125.0375.220313 0 .276563-.103124l.9-1.556251c.05625-.103125.03281-.220312-.05625-.285937zm-3.346875 1.246875c-.928125 0-1.6875-.759375-1.6875-1.6875 0-.928125.759375-1.6875 1.6875-1.6875.928125 0 1.6875.759375 1.6875 1.6875 0 .928125-.759375 1.6875-1.6875 1.6875z" stroke-width="1"/></svg>