<svg id="svg6" height="24" version="1.1" viewBox="0 0 24 24" width="24" xmlns="http://www.w3.org/2000/svg"><path id="rect828" d="m9.140625 0c.0754556.14134695.1568618.27787309.2089844.43359375.585717 1.74988605-.6156427 3.60172385-2.4316406 3.74804685-.2998491.02416-.6645392-.0017393-.9238282-.0683594l-.1972656-.0507812-.3378906.1953125c-.367567.214723-.4285294.2550611-.4121094.2695313.006.0053.1866266.1140593.4003906.2402343l.3886719.2285157.1972656-.0488282c.288669-.07176.7974884-.0879262 1.0996094-.0351562 1.098215.191824 1.9665505.997549 2.2421875 2.078125.395012 1.548558-.5785119 3.1249276-2.1386719 3.4609376-.217962.04694-.7057905.063913-.9296875.033203-.73081-.100257-1.4222847-.5091459-1.8710937-1.1074219-.169795-.226341-.3651254-.6247227-.4433594-.9023437l-.0605469-.2167969-.8613281-.5097656-.859375-.5097657-.1816406.0449219c-.33687.08118-.6742779.1065596-.9824219.0722657-.39060634-.0434717-.73299612-.1558602-1.046875-.3261719v16.9707031h24v-24h-14.859375z" fill="#000000" fill-opacity="1" opacity="1"/></svg>