<svg id="svg6" height="24" version="1.1" viewBox="0 0 24 24" width="24" xmlns="http://www.w3.org/2000/svg"><path id="rect828" d="m0 0v24h20.234375c-.09778-.186849-.184689-.382467-.230469-.544922l-.060547-.214844-.859375-.509765-.861328-.509766-.18164.044922c-.33687.08118-.674278.104607-.982422.070313-.67929-.075601-1.223424-.33388-1.699219-.806641-.873047-.867476-1.094647-2.178647-.556641-3.291016.484322-1.001372 1.536571-1.633656 2.636719-1.585937.170292.0074.395792.036742.539063.070312l.246093.056641.835938-.494141.833984-.49414.066407-.230469c.260753-.898831.890921-1.589946 1.742187-1.910156.451886-.169981 1.058473-.216412 1.544922-.117188.267834.054633.517816.153377.751953.277344v-13.810547h-24z" fill="#000000" fill-opacity="1" opacity="1"/></svg>