<svg id="svg6" height="24" version="1.1" viewBox="0 0 24 24" width="24" xmlns="http://www.w3.org/2000/svg"><path id="path4" d="m22.666667 6.361446c-.337778 0-.64.135542-.871111.347892l-3.168889-1.875c.02222-.103916.04-.207832.04-.316265 0-.108434-.01778-.21235-.04-.316265l3.133333-1.856928c.24.225904.555556.365964.906667.365964.737777 0 1.333333-.605422 1.333333-1.355422 0-.75-.595556-1.355422-1.333333-1.355422-.737778 0-1.333334.605422-1.333334 1.355422 0 .108434.01778.21235.04.316265l-3.133333 1.856928c-.24-.225904-.555556-.365964-.906667-.365964-.737777 0-1.333333.605422-1.333333 1.355422 0 .75.595556 1.355421 1.333333 1.355421.351111 0 .666667-.14006.906667-.365963l3.164444 1.879518c-.02222.09488-.03556.194277-.03556.293674 0 .72741.582223 1.319277 1.297778 1.319277.715556 0 1.297779-.591867 1.297779-1.319277 0-.727409-.582223-1.319277-1.297778-1.319277z" stroke-width="1"/></svg>