<svg id="svg6" height="24" version="1.1" viewBox="0 0 24 24" width="24" xmlns="http://www.w3.org/2000/svg"><path id="rect828" d="m0 0v24h24v-13.84375c-.232624.12763-.47939.23622-.751953.294922-.217962.04694-.705791.063913-.929688.033203-.73081-.100257-1.422284-.5091459-1.871093-1.1074219-.169795-.226341-.365126-.6247227-.44336-.9023437l-.060547-.2167969-.859375-.5097656-.859375-.5097657-.183593.0449219c-.33687.08118-.674278.1065596-.982422.0722657-.67929-.0756-1.223424-.3338797-1.699219-.8066407-.873047-.867476-1.094647-2.1805997-.556641-3.2929687.484322-1.0013719 1.536571-1.6336565 2.636719-1.5859375.170292.0074.395792.0367425.539063.0703125l.246093.0585937.835938-.4960937.833984-.49414065.066407-.23046875c.05953-.20520649.143895-.39646909.240234-.578125h-20.201172z" fill="#000000" fill-opacity="1" opacity="1"/></svg>