<svg id="svg6" height="24" version="1.1" viewBox="0 0 24 24" width="24" xmlns="http://www.w3.org/2000/svg"><path id="rect828" d="m0 0v16.988281c.43343727-.233279.92440058-.357769 1.4277344-.335937.170292.0074.3957915.036742.5390625.070312l.2460937.056641.8359375-.494141.8339844-.49414.0664063-.230469c.260754-.898831.8909215-1.589946 1.7421874-1.910156.4518861-.169981 1.0584729-.216412 1.5449219-.117188.991132.20217 1.7890123.914031 2.1132813 1.882813.585717 1.749886-.6156427 3.601725-2.4316406 3.748046-.2998491.02416-.6645392-.003692-.9238282-.070312l-.1972656-.050781-.3378906.197265c-.367567.214723-.4285294.255062-.4121094.269532.006.0053.1866266.112106.4003906.238281l.3886719.230469.1972656-.048828c.288669-.071761.7974884-.087927 1.0996094-.035157 1.098215.191824 1.9665505.997549 2.2421875 2.078125.1820318.713616.0631124 1.426126-.2597656 2.027344h14.8847656v-24h-24z" fill="#000000" fill-opacity="1" opacity="1"/></svg>