<svg id="svg6" height="24" version="1.1" viewBox="0 0 24 24" width="24" xmlns="http://www.w3.org/2000/svg"><path id="rect824" d="m0 0v20.380859c.36142465-.242607.74155493-.428811 1.1289062-.583984.200413-.080284.3801203-.050094.5820313-.115234-.577159-.660602-.9609375-1.496723-.9609375-2.431641 0-2.05308 1.69692-3.75 3.75-3.75 2.05308 0 3.75 1.69692 3.75 3.75 0 .934918-.3837785 1.771039-.9609375 2.431641.201911.065134.3816182.034954.5820313.115234.5805369.232563 1.1481608.525053 1.6542968.992187.5061364.467136.9746094 1.210936.9746094 2.085938v1.125h13.5v-24h-24z" fill="#000000" fill-opacity="1" opacity="1"/></svg>