<svg id="svg6" height="24" version="1.1" viewBox="0 0 24 24" width="24" xmlns="http://www.w3.org/2000/svg"><path id="rect824" d="m0 0v24h13.5v-1.125c0-.875002.468473-1.618803.974609-2.085938.506136-.467134 1.07376-.759624 1.654297-.992187.200413-.080284.380121-.050094.582032-.115234-.577159-.660602-.960938-1.496723-.960938-2.431641 0-2.05308 1.69692-3.75 3.75-3.75 2.05308 0 3.75 1.69692 3.75 3.75 0 .934918-.383778 1.771039-.960938 2.431641.201912.065134.381619.034954.582032.115234.387351.155173.767481.341377 1.128906.583984v-20.380859h-24z" fill="#000000" fill-opacity="1" opacity="1"/></svg>