<svg id="svg6" height="24" version="1.1" viewBox="0 0 24 24" width="24" xmlns="http://www.w3.org/2000/svg"><path id="path824" d="m4.5 15c-2.47935 0-4.5 2.02065-4.5 4.5 0 2.47935 2.02065 4.5 4.5 4.5 2.47935 0 4.5-2.02065 4.5-4.5 0-2.47935-2.02065-4.5-4.5-4.5zm-.966797 1.152344c-.352156.605123-.610742 1.222274-.785156 1.847656h-1.398438c.425301-.894338 1.215618-1.569681 2.183594-1.847656zm1.962891.0098c.954458.283297 1.733365.952706 2.154297 1.837856h-1.386719c-.166013-.618194-.415429-1.231597-.767578-1.837891zm-.986328.314453c.318068.513927.558349 1.020973.71875 1.523438h-1.439454c.166752-.503656.406937-1.011891.720704-1.523438zm-3.458985 2.523403h1.484375c-.01595.148869-.02889.29736-.0332.447266-.0053.183955.000596.36826.01367.552734h-1.464844c-.02356-.164567-.04883-.32871-.04883-.5 0-.17129.02527-.335433.04883-.5zm2.509766 0h1.884765c.02232.189698.05417.379484.05469.568359.000392.14345-.0269.287787-.03906.431641h-1.923828c-.01433-.174508-.04016-.349774-.03516-.523438.0046-.158448.03805-.317568.05859-.476562zm2.910156 0h1.478516c.02356.164567.04883.32871.04883.5 0 .17129-.02527.335433-.04883.5h-1.466797c.010319-.144484.017974-.288832.017578-.433594-.000517-.189116-.010605-.377847-.029297-.566406zm-5.121094 2h1.328125c.154528.610215.420921 1.220653.785157 1.826172-.935843-.290385-1.698386-.953714-2.113282-1.826172zm2.378907 0h1.544921c-.155042.536856-.398101 1.07941-.738281 1.628906-.375436-.554122-.644326-1.096458-.80664-1.628906zm2.578125 0h1.34375c-.40441.850407-1.139305 1.501041-2.042969 1.802734.329928-.594576.55243-1.197466.699219-1.802734z" line-height="normal" style="font-style:normal;font-variant:normal;font-weight:normal;font-stretch:normal;font-size:medium;font-family:sans-serif;text-decoration:none;letter-spacing:normal;word-spacing:normal;writing-mode:lr-tb;direction:ltr;dominant-baseline:auto;baseline-shift:baseline;text-anchor:start;clip-rule:nonzero;display:inline;visibility:visible;opacity:1;color-interpolation:sRGB;color-interpolation-filters:linearRGB;fill:#000000;fill-opacity:1;fill-rule:nonzero;color-rendering:auto;image-rendering:auto;shape-rendering:auto;text-rendering:auto"/></svg>